<mxfile host="Electron" agent="Mozilla/5.0 (X11; Linux x86_64) AppleWebKit/537.36 (KHTML, like Gecko) draw.io/28.0.6 Chrome/138.0.7204.100 Electron/37.2.3 Safari/537.36" version="28.0.6">
  <diagram name="Page-1" id="euSS6Pa3sqMTCDWZrU3M">
    <mxGraphModel dx="1026" dy="679" grid="1" gridSize="10" guides="1" tooltips="1" connect="1" arrows="1" fold="1" page="1" pageScale="1" pageWidth="850" pageHeight="1100" math="0" shadow="0">
      <root>
        <mxCell id="0" />
        <mxCell id="1" parent="0" />
        <mxCell id="DbQKqrM7L29-hHHgCwyp-141" value="ESP32" style="shape=umlLifeline;perimeter=lifelinePerimeter;whiteSpace=wrap;container=1;dropTarget=0;collapsible=0;recursiveResize=0;outlineConnect=0;portConstraint=eastwest;newEdgeStyle={&quot;edgeStyle&quot;:&quot;elbowEdgeStyle&quot;,&quot;elbow&quot;:&quot;vertical&quot;,&quot;curved&quot;:0,&quot;rounded&quot;:0};size=65;labelBackgroundColor=none;fillColor=#21C0A5;strokeColor=#006658;fontColor=#5C5C5C;" vertex="1" parent="1">
          <mxGeometry x="50" y="40" width="230" height="660" as="geometry" />
        </mxCell>
        <mxCell id="DbQKqrM7L29-hHHgCwyp-142" value="alt" style="shape=umlFrame;dashed=1;pointerEvents=0;dropTarget=0;strokeColor=#006658;height=20;width=30;labelBackgroundColor=none;fillColor=#21C0A5;fontColor=#5C5C5C;" vertex="1" parent="1">
          <mxGeometry x="30" y="296" width="286" height="309" as="geometry" />
        </mxCell>
        <mxCell id="DbQKqrM7L29-hHHgCwyp-143" value="[Phát hiện té ngã]" style="text;strokeColor=none;fillColor=none;align=center;verticalAlign=middle;whiteSpace=wrap;labelBackgroundColor=none;fontColor=#5C5C5C;" vertex="1" parent="DbQKqrM7L29-hHHgCwyp-142">
          <mxGeometry x="30" width="256" height="20" as="geometry" />
        </mxCell>
        <mxCell id="DbQKqrM7L29-hHHgCwyp-144" value="loop" style="shape=umlFrame;dashed=1;pointerEvents=0;dropTarget=0;strokeColor=#006658;height=20;width=40;labelBackgroundColor=none;fillColor=#21C0A5;fontColor=#5C5C5C;" vertex="1" parent="1">
          <mxGeometry x="20" y="173" width="306" height="442" as="geometry" />
        </mxCell>
        <mxCell id="DbQKqrM7L29-hHHgCwyp-145" value="[Giám sát liên tục]" style="text;strokeColor=none;fillColor=none;align=center;verticalAlign=middle;whiteSpace=wrap;labelBackgroundColor=none;fontColor=#5C5C5C;" vertex="1" parent="DbQKqrM7L29-hHHgCwyp-144">
          <mxGeometry x="40" width="266" height="20" as="geometry" />
        </mxCell>
        <mxCell id="DbQKqrM7L29-hHHgCwyp-146" value="Khởi động &amp; kết nối mạng" style="curved=1;endArrow=block;rounded=0;labelBackgroundColor=none;strokeColor=#006658;fontColor=default;" edge="1" parent="1" source="DbQKqrM7L29-hHHgCwyp-141" target="DbQKqrM7L29-hHHgCwyp-141">
          <mxGeometry relative="1" as="geometry">
            <Array as="points">
              <mxPoint x="223" y="123" />
              <mxPoint x="223" y="153" />
            </Array>
          </mxGeometry>
        </mxCell>
        <mxCell id="DbQKqrM7L29-hHHgCwyp-147" value="Đọc cảm biến &amp; xử lý dữ liệu" style="curved=1;endArrow=block;rounded=0;labelBackgroundColor=none;strokeColor=#006658;fontColor=default;" edge="1" parent="1" source="DbQKqrM7L29-hHHgCwyp-141" target="DbQKqrM7L29-hHHgCwyp-141">
          <mxGeometry relative="1" as="geometry">
            <Array as="points">
              <mxPoint x="223" y="246" />
              <mxPoint x="223" y="276" />
            </Array>
          </mxGeometry>
        </mxCell>
        <mxCell id="DbQKqrM7L29-hHHgCwyp-148" value="Kích hoạt cảnh báo (buzzer, LED)" style="curved=1;endArrow=block;rounded=0;labelBackgroundColor=none;strokeColor=#006658;fontColor=default;" edge="1" parent="1" source="DbQKqrM7L29-hHHgCwyp-141" target="DbQKqrM7L29-hHHgCwyp-141">
          <mxGeometry relative="1" as="geometry">
            <Array as="points">
              <mxPoint x="223" y="369" />
              <mxPoint x="223" y="399" />
            </Array>
          </mxGeometry>
        </mxCell>
        <mxCell id="DbQKqrM7L29-hHHgCwyp-149" value="Lấy GPS &amp; gửi SMS" style="curved=1;endArrow=block;rounded=0;labelBackgroundColor=none;strokeColor=#006658;fontColor=default;" edge="1" parent="1" source="DbQKqrM7L29-hHHgCwyp-141" target="DbQKqrM7L29-hHHgCwyp-141">
          <mxGeometry relative="1" as="geometry">
            <Array as="points">
              <mxPoint x="223" y="447" />
              <mxPoint x="223" y="477" />
            </Array>
          </mxGeometry>
        </mxCell>
        <mxCell id="DbQKqrM7L29-hHHgCwyp-150" value="Gửi dữ liệu lên server" style="curved=1;endArrow=block;rounded=0;labelBackgroundColor=none;strokeColor=#006658;fontColor=default;" edge="1" parent="1" source="DbQKqrM7L29-hHHgCwyp-141" target="DbQKqrM7L29-hHHgCwyp-141">
          <mxGeometry relative="1" as="geometry">
            <Array as="points">
              <mxPoint x="223" y="525" />
              <mxPoint x="223" y="555" />
            </Array>
          </mxGeometry>
        </mxCell>
        <mxCell id="DbQKqrM7L29-hHHgCwyp-151" value="Reset hệ thống" style="curved=1;endArrow=block;rounded=0;labelBackgroundColor=none;strokeColor=#006658;fontColor=default;" edge="1" parent="1" source="DbQKqrM7L29-hHHgCwyp-141" target="DbQKqrM7L29-hHHgCwyp-141">
          <mxGeometry x="-0.3737" y="-8" relative="1" as="geometry">
            <Array as="points">
              <mxPoint x="190" y="650" />
              <mxPoint x="180" y="650" />
              <mxPoint x="223" y="653" />
              <mxPoint x="223" y="683" />
            </Array>
            <mxPoint as="offset" />
          </mxGeometry>
        </mxCell>
      </root>
    </mxGraphModel>
  </diagram>
</mxfile>
